/* XPM */
static char *configure_cups_16[] = {
/* columns rows colors chars-per-pixel */
"16 16 92 1 ",
"  c #424245",
". c gray27",
"X c gray28",
"o c #484848",
"O c #494949",
"+ c gray29",
"@ c #4B4B4B",
"# c #535353",
"$ c #515157",
"% c gray33",
"& c #555555",
"* c #585858",
"= c gray35",
"- c #5A5A60",
"; c #646464",
": c #66676D",
"> c #747474",
", c #767676",
"< c gray48",
"1 c #7B7B7B",
"2 c #8B8B8B",
"3 c #8D8D8D",
"4 c #929292",
"5 c gray58",
"6 c #959595",
"7 c #979797",
"8 c gray60",
"9 c #9A9A9A",
"0 c #9B9B9B",
"q c gray61",
"w c #9F9F9F",
"e c #9D9DA0",
"r c #9E9EA0",
"t c #A0A0A0",
"y c gray63",
"u c #A9A9A9",
"i c #ACACAC",
"p c #AAB2BB",
"a c gray71",
"s c #B7B7B7",
"d c gray72",
"f c #BBBBBB",
"g c #BABBBC",
"h c #BABABF",
"j c gray74",
"k c gray75",
"l c #BCC2C8",
"z c #C0C0C0",
"x c #C1C1C1",
"c c #C0C1C2",
"v c gray76",
"b c #C4C5C5",
"n c #C6C6CA",
"m c #C7C8C8",
"M c gray79",
"N c #CDCECE",
"B c #CECECE",
"V c gray81",
"C c #CECED2",
"Z c #CED2D5",
"A c #D0D0D0",
"S c #D2D2D2",
"D c #D2D2D4",
"F c #D2D2D6",
"G c gray83",
"H c #D4D4D5",
"J c #D5D5D5",
"K c #D4D4D7",
"L c #D3D6D9",
"P c #DADADA",
"I c #D9DBDC",
"U c #DBDBDC",
"Y c #D8DADE",
"T c #D9DCDE",
"R c #DCDDDF",
"E c #DEDEDF",
"W c #DFDFDF",
"Q c #DFDFE1",
"! c #E0E0E2",
"~ c #E2E2E2",
"^ c #E4E4E4",
"/ c #E7E7E9",
"( c #E8E8E9",
") c #EBEBED",
"_ c #ECEDEE",
"` c #EEEEEE",
"' c gray95",
"] c #F7F8F8",
"[ c gray99",
"{ c #FEFEFE",
"} c gray100",
"| c None",
/* pixels */
"||||||||||||||||",
"||||}}}}}}}}||||",
"||||EgNbvmEZ||||",
"|||8UHFP~E(R8|||",
"|||6K~/))/~K6|||",
"|uk6hnCFFCnh6vu|",
"|vMt1<>>>><1tMv|",
"|``8&&&&&&&&8``|",
"|^^2o.%;;#XX3^^|",
"AAHvddtq0tddvHkA",
"6AN=o@oooo@@&Ni4",
"<va $$$:-$$$ ak>",
"||.rQQQLlY!Qr.||",
"|||k[['RpU[[k|||",
"|||N}}}`]}}}N|||",
"||||||||||||||||"
};
