/* XPM */
static char *configure_cups[] = {
/* columns rows colors chars-per-pixel */
"32 32 224 2 ",
"   c #111111",
".  c gray7",
"X  c gray11",
"o  c #222222",
"O  c gray16",
"+  c gray17",
"@  c #2B2B2E",
"#  c #2D2D2F",
"$  c #323232",
"%  c #343434",
"&  c #353535",
"*  c gray21",
"=  c #3F3F3F",
"-  c gray25",
";  c #414141",
":  c #434343",
">  c #444444",
",  c gray27",
"<  c #464646",
"1  c gray28",
"2  c #484848",
"3  c #494949",
"4  c gray30",
"5  c gray31",
"6  c #505050",
"7  c #515151",
"8  c gray32",
"9  c #535353",
"0  c #555555",
"q  c gray34",
"w  c #585858",
"e  c #4F617A",
"r  c gray38",
"t  c #626262",
"y  c gray39",
"u  c #656565",
"i  c gray40",
"p  c #666667",
"a  c #676767",
"s  c DimGray",
"d  c #6A6A6A",
"f  c gray43",
"g  c #767676",
"h  c #777777",
"j  c gray47",
"k  c gray48",
"l  c #7B7B7B",
"z  c #7C7C7C",
"x  c gray49",
"c  c #7E7E7E",
"v  c gray50",
"b  c #808080",
"n  c #818181",
"m  c gray51",
"M  c #838383",
"N  c gray52",
"B  c #8D8D8D",
"V  c #8E8E8E",
"C  c gray56",
"Z  c #888C91",
"A  c #8A8E93",
"S  c #8E8E97",
"D  c #8F8F98",
"F  c #8D9095",
"G  c #8E9194",
"H  c #909090",
"J  c #939393",
"K  c gray58",
"L  c gray59",
"P  c #979797",
"I  c #909099",
"U  c #909398",
"Y  c #919498",
"T  c #94969A",
"R  c #97999B",
"E  c #9A9A9A",
"W  c #9B9B9B",
"Q  c #999B9F",
"!  c gray61",
"~  c #9D9D9D",
"^  c gray62",
"/  c #9F9F9F",
"(  c #8894A2",
")  c #929CA9",
"_  c #97A0AD",
"`  c #A0A0A0",
"'  c gray64",
"]  c #A4A4A4",
"[  c #A5A5A5",
"{  c #A7A7A7",
"}  c #A3A3AA",
"|  c #A3A5A8",
" . c #A7A9AB",
".. c #AAAAAA",
"X. c #ACACAC",
"o. c gray68",
"O. c #AEAEAE",
"+. c #ADAFB1",
"@. c #A5AEB8",
"#. c #ACB4BD",
"$. c gray69",
"%. c #B2B2B2",
"&. c gray70",
"*. c #B1B2B4",
"=. c #B0B0B6",
"-. c #B3B4B6",
";. c #B4B4B4",
":. c #B4B5B7",
">. c #B5B6B7",
",. c #B8B8B7",
"<. c #B6B6BC",
"1. c #B6B8BD",
"2. c gray72",
"3. c #B8B9BB",
"4. c #B9B9BB",
"5. c #BBBBBB",
"6. c #BCBCBC",
"7. c gray74",
"8. c #BCBDBE",
"9. c gray",
"0. c gray75",
"q. c #B7BEC4",
"w. c #BCBCC1",
"e. c #BEBFC0",
"r. c #BDBDC2",
"t. c #BBC1C7",
"y. c #BDC3C9",
"u. c #C0C0C0",
"i. c #C1C1C1",
"p. c gray76",
"a. c #C1C1C6",
"s. c gray77",
"d. c #C5C5C5",
"f. c #C6C6C6",
"g. c #C4C4C8",
"h. c #C6C7C8",
"j. c #C5C5CA",
"k. c #C4C8CE",
"l. c #C6CACF",
"z. c #C8C8C8",
"x. c gray79",
"c. c #C8C9CA",
"v. c #CACACA",
"b. c #C8C8CC",
"n. c #CACACE",
"m. c #CBCBCF",
"M. c gray80",
"N. c #CDCDCD",
"B. c #CECECE",
"V. c gray81",
"C. c #C8CCD0",
"Z. c #C8CDD0",
"A. c #C8CCD1",
"S. c #CDCDD2",
"D. c #CDCED3",
"F. c #CFCFD3",
"G. c #CBCFD4",
"H. c #CDD0D4",
"J. c gray82",
"K. c #D2D2D2",
"L. c #D1D1D5",
"P. c #D0D3D6",
"I. c #D3D3D7",
"U. c #D3D4D7",
"Y. c gray83",
"T. c gray84",
"R. c #D6D6D7",
"E. c #D7D7D7",
"W. c #D2D5D8",
"Q. c #D6D6D9",
"!. c #D7D7DA",
"~. c #D7D7DB",
"^. c #D6D9DC",
"/. c #D8D8D8",
"(. c gray85",
"). c #DADADA",
"_. c #D9D9DC",
"`. c #D9DADD",
"'. c #DADADD",
"]. c #DDDDDD",
"[. c #DDDDDF",
"{. c gray87",
"}. c #DFDFDF",
"|. c #DDDDE0",
" X c #DCDEE0",
".X c #DDDFE0",
"XX c gray88",
"oX c #E0E0E3",
"OX c gray89",
"+X c #E1E3E5",
"@X c #E3E3E5",
"#X c #E2E4E5",
"$X c #E4E4E4",
"%X c gray90",
"&X c #E5E5E7",
"*X c #E6E6E8",
"=X c #E6E7E8",
"-X c #E7E7E9",
";X c gray91",
":X c #E8E9EA",
">X c #E9EAEA",
",X c #EAEAEB",
"<X c gray92",
"1X c #EBEBED",
"2X c #ECECED",
"3X c #EDEDEE",
"4X c #EEEEEE",
"5X c #EFEFEF",
"6X c #EEEEF0",
"7X c #F0F0F2",
"8X c #F1F1F3",
"9X c #F2F2F3",
"0X c #F2F2F4",
"qX c #F6F6F6",
"wX c #F8F8F8",
"eX c #F8F8F9",
"rX c #F9F9FA",
"tX c gray98",
"yX c gray99",
"uX c #FDFDFD",
"iX c #FDFDFE",
"pX c #FEFEFE",
"aX c gray100",
"sX c None",
/* pixels */
"sXsXsXsXsXsXsXsXsXsXsXsXsXsXsXsXsXsXsXsXsXsXsXsXsXsXsXsXsXsXsXsX",
"sXsXsXsXsXsXsXsXsXsXsXsXsXsXsXsXsXsXsXsXsXsXsXsXsXsXsXsXsXsXsXsX",
"sXsXsXsXsXsXsXsXaXaXaXaXaXaXaXaXaXaXaXaXaXaXaXaXsXsXsXsXsXsXsXsX",
"sXsXsXsXsXsXsXsXaXaXaXaXaXaXaXaXaXaXaXaXaXaXaXiXsXsXsXsXsXsXsXsX",
"sXsXsXsXsXsXsXsXeXaX4X<X4XaXaXaX4X4XaXaXaXaX@XeXsXsXsXsXsXsXsXsX",
"sXsXsXsXsXsXsXsX0XR U G Z >.Z | T G Y Q  .#XG.) sXsXsXsXsXsXsXsX",
"sXsXsXsXsXsXsXJ ,X2.,.t.>.*.w.-.x.h.+.Q.T.:XH.'.J sXsXsXsXsXsXsX",
"sXsXsXsXsXsXsXJ oX;X4X0XqXeXrXrXrXrXeXqX0X4X-XoXJ sXsXsXsXsXsXsX",
"sXsXsXsXsXsXsXJ Q.[.@X-X1X6X6X6X0X6X4X1X-X@X|.Q.J sXsXsXsXsXsXsX",
"sXsXsXsXsXsXsXJ n.L.Q.[.@X@X-X-X-X&X@X@X|.~.L.n.C sXsXsXsXsXsXsX",
"sXsXE O.7.7.%.N w.g.n.F.I.~.'.'.'.~.Q.I.F.n.g.w.N %.i.7.O.E sXsX",
"sXsX] 2.7.i.O.g =.<.w.a.g.x.n.n.m.n.n.g.a.w.<.*.g O.i.7.2.] sXsX",
"sXsXO.2.i.d.O.4 3 3 , , , , , > > > , , , , 3 3 4 $.s.u.7.O.sXsX",
"sXx.J.T.).).x.T.T.T.T.T.E.Q.T.T././.Q./.T.T.T.T.Y.x.).).T.J.x.sX",
"sX%X4X4X4X4XJ.w q q 9 q q q 9 q 9 q q q 9 q 9 q q Y.4X4X4X4X%XsX",
"sX%X4X4X4X4XM.q q 9 q 9 q 9 q 9 q 9 q 9 q 9 q q q M.4X4X4X5XoXsX",
"sXXX;X;X;X;Xd.8 5 5 5 5 5 q r y w y w 9 5 5 5 5 5 h.;X;X;X;XXXsX",
"sX(.XXXXXXoX5.= = = = = : $ % * * * O = = = = = ; 7.XXXXXXXX).sX",
"sXu.z.h.x.M.9.E W ! ^ / C u d h g d u C ` ` ^ ^ ^ i.F.B.M.M.s.sX",
"sXY.].].].]./.Y.J.J.Y.J.J.J.Y.J.J.J.J.J.K.K.J.J.J.).].].2.x.T.sX",
"sXi.Y.Y.K./.] m n n n z z z z k l z z z z n b b n ] T.Y...z.u.sX",
"sX&.M.M.M.9..                                       7.M.i.>.%.sX",
"sX] s.s.d.+.o + # # # # # # # # # # # # # # # # # o O.d.%.i.' sX",
"sXP 5.5.4.{ 9 D D D D U D D U 1.} D D D U D D D S 9 { 5.5.5.L sX",
"sX9 y t t a a S.S.S.S.S.S.S.P.y.k.S.S.S.S.S.S.S.S.u u y y y 9 sX",
"sXsXsXsXsX+ f <X:X4X4X<X4X:XZ.^.#.( C.4X4X1X1X4X4Xf + sXsXsXsXsX",
"sXsXsXsXsXsXb eXeXeXeXeXeXP.-Xy.C.e ) eXqXeXqXeXeXz sXsXsXsXsXsX",
"sXsXsXsXsXX n aXyXyXaXaXaXyXk.|.@.P.aXeXaXaXaXaXaXn X sXsXsXsXsX",
"sXsXsXsXsXsXK aXaXeXaXeXaXeXaXq..XaXrXaXaXeXaXeXaXJ sXsXsXsXsXsX",
"sXsXsXsXsXsX' aXaXaXaXaXaXaXaXaXaXaXaXaXaXaXaXaXaX' sXsXsXsXsXsX",
"sXsXsXsXsXsXsXsXsXsXsXsXsXsXsXsXsXsXsXsXsXsXsXsXsXsXsXsXsXsXsXsX",
"sXsXsXsXsXsXsXsXsXsXsXsXsXsXsXsXsXsXsXsXsXsXsXsXsXsXsXsXsXsXsXsX"
};
